<?xml version="1.0" standalone="no"?><!-- Generator: Gravit.io --><svg xmlns="http://www.w3.org/2000/svg" xmlns:xlink="http://www.w3.org/1999/xlink" style="isolation:isolate" viewBox="0 0 2700 3260.87" width="2700" height="3260.87"><defs><clipPath id="_clipPath_uzulj55EOIyS5rHo3Fc5X0wv6F0xSCcO"><rect width="2700" height="3260.87"/></clipPath></defs><g clip-path="url(#_clipPath_uzulj55EOIyS5rHo3Fc5X0wv6F0xSCcO)"><g><g><linearGradient id="_lgradient_12" x1="0" y1="0.5" x2="1" y2="0.5" gradientTransform="matrix(-229.35,-227.486,227.486,-229.35,2111.009,1213.429)" gradientUnits="userSpaceOnUse"><stop offset="0%" stop-opacity="1" style="stop-color:rgb(233,62,58)"/><stop offset="10%" stop-opacity="1" style="stop-color:rgb(237,104,60)"/><stop offset="30%" stop-opacity="1" style="stop-color:rgb(243,144,63)"/><stop offset="70%" stop-opacity="1" style="stop-color:rgb(253,199,12)"/><stop offset="100%" stop-opacity="1" style="stop-color:rgb(255,243,59)"/></linearGradient><path d=" M 2224.751 1098.754 C 2161.975 1162.045 2059.624 1162.463 1996.333 1099.686 C 1933.042 1036.91 1932.625 934.559 1995.401 871.268 C 2058.177 807.977 2160.528 807.56 2223.819 870.336 C 2287.11 933.112 2287.528 1035.463 2224.751 1098.754 Z " fill="url(#_lgradient_12)"/><linearGradient id="_lgradient_13" x1="0" y1="0.5" x2="1" y2="0.5" gradientTransform="matrix(1098.298,-0.09,0.005,64.606,786.289,1084.999)" gradientUnits="userSpaceOnUse"><stop offset="0%" stop-opacity="1" style="stop-color:rgb(233,62,58)"/><stop offset="10%" stop-opacity="1" style="stop-color:rgb(237,104,60)"/><stop offset="30%" stop-opacity="1" style="stop-color:rgb(243,144,63)"/><stop offset="70%" stop-opacity="1" style="stop-color:rgb(253,199,12)"/><stop offset="100%" stop-opacity="1" style="stop-color:rgb(255,243,59)"/></linearGradient><rect x="786.206" y="1085.072" width="1098.307" height="64.606" transform="matrix(-1,0.004,-0.004,-1,2675.27,2229.291)" fill="url(#_lgradient_13)"/><linearGradient id="_lgradient_14" x1="0" y1="0.5" x2="1" y2="0.5" gradientTransform="matrix(1098.376,-0.479,0.028,64.61,785.434,826.199)" gradientUnits="userSpaceOnUse"><stop offset="5.224578939412501e-15%" stop-opacity="1" style="stop-color:rgb(233,62,58)"/><stop offset="10.000000000000005%" stop-opacity="1" style="stop-color:rgb(237,104,60)"/><stop offset="30.000000000000004%" stop-opacity="1" style="stop-color:rgb(243,144,63)"/><stop offset="70%" stop-opacity="1" style="stop-color:rgb(253,199,12)"/><stop offset="100%" stop-opacity="1" style="stop-color:rgb(255,243,59)"/></linearGradient><rect x="785.08" y="826.548" width="1098.385" height="64.611" transform="matrix(-1,0.004,-0.004,-1,2672.341,1711.78)" fill="url(#_lgradient_14)"/><linearGradient id="_lgradient_15" x1="0" y1="0.5" x2="1" y2="0.5" gradientTransform="matrix(1485.933,-0.122,0.005,64.606,204.283,957.45)" gradientUnits="userSpaceOnUse"><stop offset="0%" stop-opacity="1" style="stop-color:rgb(233,62,58)"/><stop offset="10%" stop-opacity="1" style="stop-color:rgb(237,104,60)"/><stop offset="30%" stop-opacity="1" style="stop-color:rgb(243,144,63)"/><stop offset="70%" stop-opacity="1" style="stop-color:rgb(253,199,12)"/><stop offset="100%" stop-opacity="1" style="stop-color:rgb(255,243,59)"/></linearGradient><rect x="204.206" y="957.474" width="1485.945" height="64.606" transform="matrix(-1,0.004,-0.004,-1,1898.389,1975.68)" fill="url(#_lgradient_15)"/><linearGradient id="_lgradient_16" x1="0" y1="0.5" x2="1" y2="0.5" gradientTransform="matrix(-777.636,-771.313,771.313,-777.636,1789.387,1760.807)" gradientUnits="userSpaceOnUse"><stop offset="0%" stop-opacity="1" style="stop-color:rgb(233,62,58)"/><stop offset="10%" stop-opacity="1" style="stop-color:rgb(237,104,60)"/><stop offset="30%" stop-opacity="1" style="stop-color:rgb(243,144,63)"/><stop offset="70%" stop-opacity="1" style="stop-color:rgb(253,199,12)"/><stop offset="100%" stop-opacity="1" style="stop-color:rgb(255,243,59)"/></linearGradient><path d=" M 2148.669 758.67 C 2273.295 758.253 2375.126 859.257 2375.726 983.881 C 2375.973 1044.275 2352.678 1101.156 2310.138 1144.044 C 2267.598 1186.933 2210.955 1210.646 2150.515 1210.938 L 1303.405 1214.442 L 1303.668 1279.038 L 2150.734 1275.581 C 2228.396 1275.264 2301.275 1244.723 2356.008 1189.541 C 2410.695 1134.405 2440.64 1061.28 2440.368 983.571 C 2440.041 903.442 2407.172 830.893 2354.284 778.435 C 2301.442 726.022 2228.58 693.701 2148.451 694.028 L 1301.386 697.486 L 1301.649 762.082 L 2148.669 758.67 Z " fill="url(#_lgradient_16)"/></g></g><g><linearGradient id="_lgradient_17" x1="0" y1="0.5" x2="1" y2="0.5" gradientTransform="matrix(2434.055,0,0,782.609,130.435,1600)" gradientUnits="userSpaceOnUse"><stop offset="1.9914314343052134e-15%" stop-opacity="1" style="stop-color:rgb(233,62,58)"/><stop offset="10.000000000000002%" stop-opacity="1" style="stop-color:rgb(237,104,60)"/><stop offset="30%" stop-opacity="1" style="stop-color:rgb(243,144,63)"/><stop offset="70%" stop-opacity="1" style="stop-color:rgb(253,199,12)"/><stop offset="100%" stop-opacity="1" style="stop-color:rgb(255,243,59)"/></linearGradient><path d=" M 783.154 1607.641 L 969.802 1607.641 L 630.344 2371.694 L 469.893 2371.694 L 130.435 1607.641 L 317.082 1607.641 L 550.664 2158.85 L 783.154 1607.641 Z  M 1328.907 1794.288 C 1457.704 1794.288 1637.802 1891.432 1601.783 2147.935 L 1205.567 2147.935 C 1225.214 2206.876 1276.514 2237.439 1345.279 2237.439 C 1415.135 2237.439 1436.966 2222.157 1476.26 2205.785 L 1571.221 2297.471 C 1521.011 2346.589 1453.338 2382.609 1338.73 2382.609 C 1197.926 2382.609 1029.834 2285.465 1029.834 2090.085 C 1029.834 1891.432 1200.109 1794.288 1328.907 1794.288 Z  M 1328.907 1941.641 C 1279.789 1941.641 1229.58 1970.02 1207.75 2026.778 L 1448.972 2026.778 C 1431.508 1970.02 1378.024 1941.641 1328.907 1941.641 Z  M 1872.476 1600 L 1872.476 2371.694 L 1700.018 2371.694 L 1700.018 1600 L 1872.476 1600 Z  M 2265.417 1794.288 C 2394.215 1794.288 2564.49 1891.432 2564.49 2090.085 C 2564.49 2289.831 2394.215 2382.609 2265.417 2382.609 C 2136.62 2382.609 1966.345 2289.831 1966.345 2090.085 C 1966.345 1891.432 2136.62 1794.288 2265.417 1794.288 Z  M 2265.417 1946.007 C 2199.927 1946.007 2133.345 1996.216 2133.345 2090.085 C 2133.345 2180.68 2199.927 2230.89 2265.417 2230.89 C 2330.908 2230.89 2398.581 2180.68 2398.581 2090.085 C 2398.581 1996.216 2330.908 1946.007 2265.417 1946.007 Z " fill="url(#_lgradient_17)"/></g></g></svg>